<svg width="20" height="20" viewBox="0 0 20 20" fill="none" xmlns="http://www.w3.org/2000/svg">
<path fill-rule="evenodd" clip-rule="evenodd" d="M1.875 10C1.875 5.5142 5.5142 1.875 10 1.875C14.4858 1.875 18.125 5.5142 18.125 10C18.125 14.4858 14.4858 18.125 10 18.125C5.5142 18.125 1.875 14.4858 1.875 10ZM10 3.125C6.20455 3.125 3.125 6.20455 3.125 10C3.125 13.7954 6.20455 16.875 10 16.875C13.7954 16.875 16.875 13.7954 16.875 10C16.875 6.20455 13.7954 3.125 10 3.125Z" fill="#01DC81"/>
<path fill-rule="evenodd" clip-rule="evenodd" d="M14.1521 6.39657C14.4164 6.61858 14.4507 7.01282 14.2287 7.27713L8.9787 13.5271C8.86234 13.6656 8.69168 13.747 8.51081 13.75C8.32993 13.7531 8.15659 13.6777 8.03557 13.5432L5.78557 11.0432C5.55466 10.7867 5.57546 10.3915 5.83202 10.1606C6.08859 9.92966 6.48378 9.95046 6.71469 10.207L8.48387 12.1728L13.2716 6.47314C13.4936 6.20883 13.8878 6.17455 14.1521 6.39657Z" fill="#01DC81"/>
</svg>
