<svg width="24" height="24" viewBox="0 0 24 24" fill="none" xmlns="http://www.w3.org/2000/svg">
<path d="M21.993 5.72243C21.9677 5.91852 21.8738 6.09851 21.7288 6.22897C21.5839 6.35943 21.3977 6.43148 21.2049 6.43174C21.1696 6.4317 21.1343 6.4293 21.0993 6.42456L19.7164 6.23675C20.9751 8.06755 21.5981 10.2789 21.4853 12.5162C21.3726 14.7535 20.5307 16.8872 19.0946 18.5751C17.6586 20.263 15.7115 21.4074 13.5657 21.8249C11.4198 22.2423 9.19949 21.9085 7.26065 20.8771C5.3218 19.8457 3.77677 18.1763 2.87328 16.1367C1.96978 14.0971 1.76015 11.8054 2.27801 9.62896C2.79587 7.45255 4.01121 5.51755 5.72917 4.1342C7.44713 2.75085 9.5682 1.99928 11.7523 2C11.9634 2 12.1659 2.08603 12.3152 2.23917C12.4645 2.39231 12.5484 2.6 12.5484 2.81657C12.5484 3.03314 12.4645 3.24084 12.3152 3.39398C12.1659 3.54711 11.9634 3.63315 11.7523 3.63315C9.922 3.63132 8.14416 4.2601 6.70394 5.41862C5.26371 6.57715 4.24458 8.19828 3.81001 10.022C3.37545 11.8457 3.55063 13.7662 4.30747 15.4756C5.06431 17.1849 6.35894 18.584 7.98369 19.4484C9.60844 20.3128 11.4691 20.5923 13.2673 20.2423C15.0655 19.8922 16.697 18.9328 17.9 17.5179C19.103 16.1031 19.8079 14.3147 19.9015 12.4398C19.9952 10.5649 19.4722 8.71207 18.4164 7.1785L18.3408 8.97716C18.3319 9.18734 18.2444 9.38592 18.0963 9.53151C17.9483 9.67709 17.7512 9.75845 17.5461 9.75862C17.5344 9.75862 17.5229 9.75826 17.5113 9.75785C17.3004 9.74853 17.1017 9.65365 16.9589 9.49409C16.8162 9.33452 16.7411 9.12333 16.7502 8.90698L16.9099 5.10441C16.9104 5.09244 16.9139 5.08146 16.9148 5.06962C16.9155 5.06145 16.9148 5.05329 16.9158 5.04484C16.9162 5.04075 16.9156 5.03667 16.9161 5.03226V5.03185C16.9183 5.01552 16.9238 4.99919 16.927 4.98286C16.9316 4.95836 16.9367 4.93448 16.9434 4.91092C16.9469 4.89842 16.9486 4.8856 16.9527 4.87323C16.9579 4.8578 16.9661 4.84425 16.9721 4.8293C16.981 4.80742 16.99 4.78586 17.0006 4.765C17.0069 4.75275 17.0111 4.73952 17.0181 4.72735C17.0267 4.71221 17.038 4.69939 17.0477 4.68493C17.0593 4.66754 17.071 4.65055 17.0838 4.63418C17.0878 4.62904 17.0909 4.62332 17.095 4.61834C17.1008 4.61128 17.1046 4.60323 17.1106 4.59633C17.1225 4.58253 17.1369 4.57245 17.1495 4.55959C17.1622 4.54673 17.1739 4.53566 17.1868 4.52427C17.1996 4.51288 17.2103 4.5003 17.2235 4.49002C17.2397 4.47732 17.2574 4.46793 17.2744 4.45666C17.286 4.44894 17.2978 4.44184 17.3098 4.43473C17.325 4.42575 17.339 4.41489 17.3548 4.40693C17.3729 4.39791 17.3918 4.39195 17.4103 4.38435C17.4237 4.37876 17.4373 4.37398 17.4511 4.36916C17.4676 4.36341 17.4833 4.35581 17.5002 4.35116C17.5179 4.3463 17.536 4.3445 17.554 4.34091C17.5719 4.33732 17.5898 4.33454 17.6078 4.33213C17.6232 4.33017 17.6379 4.32617 17.6535 4.32511C17.6699 4.32401 17.6862 4.32597 17.7027 4.32589C17.715 4.32589 17.7268 4.32303 17.7393 4.32348C17.7518 4.32393 17.7622 4.32756 17.774 4.32862C17.78 4.32915 17.786 4.32862 17.7919 4.32931C17.7978 4.33001 17.8038 4.32907 17.8097 4.32985H17.8111H17.8124L21.3083 4.80517C21.412 4.81919 21.512 4.85405 21.6026 4.90776C21.6931 4.96147 21.7725 5.03296 21.8361 5.11816C21.8997 5.20336 21.9463 5.30058 21.9732 5.40427C22.0001 5.50796 22.0068 5.61607 21.993 5.72243Z" fill="orange"/>
</svg>
